<svg width="207" height="100" viewBox="0 0 207 100" fill="none" xmlns="http://www.w3.org/2000/svg">
<path d="M57.6235 65H54.3475C53.7582 65 53.4635 64.7053 53.4635 64.116V39.364C53.4635 38.7747 53.7582 38.48 54.3475 38.48H57.6235C58.2128 38.48 58.5075 38.7747 58.5075 39.364V41.236H58.7155C59.7208 39.3987 61.5582 38.48 64.2275 38.48H65.9435C68.9595 38.48 71.1088 39.624 72.3915 41.912C72.9462 40.8027 73.7955 39.9533 74.9395 39.364C76.0835 38.7747 77.3142 38.48 78.6315 38.48H80.2955C82.8262 38.48 84.7502 39.1907 86.0675 40.612C87.4195 41.9987 88.0955 43.9747 88.0955 46.54V64.116C88.0955 64.7053 87.8008 65 87.2115 65H83.8835C83.2942 65 82.9995 64.7053 82.9995 64.116V46.748C82.9995 44.1827 81.7515 42.9 79.2555 42.9H77.7475C74.8702 42.9 73.4315 44.408 73.4315 47.424V64.116C73.4315 64.7053 73.1195 65 72.4955 65H69.2195C68.6302 65 68.3355 64.7053 68.3355 64.116V46.748C68.3355 44.1827 67.0875 42.9 64.5915 42.9H62.7715C59.9288 42.9 58.5075 44.3733 58.5075 47.32V64.116C58.5075 64.7053 58.2128 65 57.6235 65ZM106.509 65H101.933C99.3679 65 97.3745 64.2893 95.9532 62.868C94.5665 61.4467 93.8732 59.4707 93.8732 56.94V46.54C93.8732 43.9747 94.5665 41.9987 95.9532 40.612C97.3745 39.1907 99.3679 38.48 101.933 38.48H106.509C109.04 38.48 111.016 39.1907 112.437 40.612C113.893 41.9987 114.621 43.9747 114.621 46.54V56.94C114.621 59.4707 113.893 61.4467 112.437 62.868C111.016 64.2893 109.04 65 106.509 65ZM102.661 60.58H105.833C108.329 60.58 109.577 59.3147 109.577 56.784V46.696C109.577 44.1653 108.329 42.9 105.833 42.9H102.661C101.344 42.9 100.391 43.212 99.8012 43.836C99.2119 44.4253 98.9172 45.3787 98.9172 46.696V56.784C98.9172 58.1013 99.2119 59.072 99.8012 59.696C100.391 60.2853 101.344 60.58 102.661 60.58ZM118.932 38.48H122.416C122.971 38.48 123.3 38.7747 123.404 39.364L128.812 60.268H129.176L134.48 39.364C134.619 38.7747 134.983 38.48 135.572 38.48H139.004C139.628 38.48 139.836 38.7747 139.628 39.364L132.608 64.064C132.47 64.688 132.088 65 131.464 65H126.472C125.848 65 125.467 64.688 125.328 64.064L118.308 39.364C118.17 38.7747 118.378 38.48 118.932 38.48ZM162.677 65H151.445C148.88 65 146.886 64.2893 145.465 62.868C144.078 61.4467 143.385 59.4707 143.385 56.94V46.54C143.385 43.9747 144.078 41.9987 145.465 40.612C146.886 39.1907 148.88 38.48 151.445 38.48H155.709C158.274 38.48 160.268 39.1907 161.689 40.612C163.11 41.9987 163.821 43.9747 163.821 46.54V53.144C163.821 53.768 163.509 54.08 162.885 54.08H148.949C148.568 54.08 148.377 54.2533 148.377 54.6V56.836C148.377 59.3667 149.642 60.632 152.173 60.632H162.677C163.301 60.632 163.613 60.944 163.613 61.568V64.168C163.613 64.7227 163.301 65 162.677 65ZM148.949 50.544H158.257C158.604 50.544 158.777 50.3707 158.777 50.024V46.696C158.777 45.3787 158.482 44.4253 157.893 43.836C157.304 43.212 156.35 42.9 155.033 42.9H152.173C150.856 42.9 149.902 43.212 149.313 43.836C148.724 44.4253 148.429 45.3787 148.429 46.696V50.024C148.429 50.3707 148.602 50.544 148.949 50.544ZM174.073 57.772V64.116C174.073 64.7053 173.796 65 173.241 65H169.705C169.116 65 168.821 64.7053 168.821 64.116V57.772C168.821 57.2173 169.116 56.94 169.705 56.94H173.241C173.796 56.94 174.073 57.2173 174.073 57.772ZM180.169 34.06V29.328C180.169 28.7733 180.446 28.496 181.001 28.496H184.381C184.935 28.496 185.213 28.7733 185.213 29.328V34.06C185.213 34.6493 184.935 34.944 184.381 34.944H181.001C180.446 34.944 180.169 34.6493 180.169 34.06ZM180.169 64.116V39.364C180.169 38.7747 180.446 38.48 181.001 38.48H184.329C184.918 38.48 185.213 38.7747 185.213 39.364V64.116C185.213 64.4627 185.143 64.7053 185.005 64.844C184.901 64.948 184.693 65 184.381 65H181.053C180.463 65 180.169 64.7053 180.169 64.116ZM192.826 42.9H190.33C189.983 42.9 189.74 42.848 189.602 42.744C189.498 42.6053 189.446 42.38 189.446 42.068V39.364C189.446 38.7747 189.74 38.48 190.33 38.48H192.826C193.172 38.48 193.346 38.3067 193.346 37.96V33.28C193.346 32.6907 193.658 32.396 194.282 32.396H197.558C198.147 32.396 198.442 32.6907 198.442 33.28V37.96C198.442 38.3067 198.632 38.48 199.014 38.48H203.85C204.474 38.48 204.786 38.7747 204.786 39.364V42.068C204.786 42.6227 204.474 42.9 203.85 42.9H199.014C198.632 42.9 198.442 43.0733 198.442 43.42V56.784C198.442 59.3147 199.742 60.58 202.342 60.58H204.37C204.994 60.58 205.306 60.8747 205.306 61.464V64.168C205.306 64.7227 204.994 65 204.37 65H201.562C198.996 65 196.986 64.3067 195.53 62.92C194.074 61.5333 193.346 59.5747 193.346 57.044V43.42C193.346 43.0733 193.172 42.9 192.826 42.9Z" fill="#2E384D"/>
<path d="M18.9907 37H28.0976L20.5215 73H11.4146L18.9907 37Z" fill="#5965E0"/>
<path d="M32.213 37H41.2683L35.3989 65.0976H26.3415L32.213 37Z" fill="#5965E0"/>
<path d="M5.87155 37H14.9268L9.05743 65.0976H0L5.87155 37Z" fill="#5965E0"/>
</svg>
